<svg id="Layer_1" data-name="Layer 1" xmlns="http://www.w3.org/2000/svg" xmlns:xlink="http://www.w3.org/1999/xlink" viewBox="0 0 1800 923.99"><defs><style>.cls-1{fill:#a8809c;opacity:0.15;}.cls-17,.cls-2{fill:#6c63ff;}.cls-13,.cls-18,.cls-2,.cls-21,.cls-34,.cls-6,.cls-9{isolation:isolate;}.cls-13,.cls-19,.cls-2,.cls-21,.cls-6{opacity:0.1;}.cls-3{fill:url(#linear-gradient);}.cls-4{fill:#1d2366;}.cls-5{fill:#ffb0b1;}.cls-7{fill:#c7daf5;}.cls-13,.cls-8{fill:#fff;}.cls-9{opacity:0.03;}.cls-10{fill:#dce7ff;}.cls-11{fill:#591d4b;}.cls-12{fill:#be8b87;}.cls-14{fill:#efc8c4;}.cls-15{fill:#727a9c;}.cls-16{fill:#d48a9b;}.cls-18{fill:#dda2a6;opacity:0.2;}.cls-20,.cls-21{fill:#333f4f;}.cls-22{fill:#e1dee5;}.cls-23{fill:#65617d;}.cls-24{fill:#d9d6df;}.cls-25{fill:#746d83;}.cls-26{fill:#d1d9ec;}.cls-27{fill:#4c4c56;}.cls-28{fill:#dfe6f5;}.cls-29{fill:#c0d4f1;}.cls-30{fill:#fbca62;}.cls-31{fill:#a19bff;}.cls-32{fill:#fbac08;}.cls-33{fill:#d3e3f5;}.cls-34{opacity:0.3;}.cls-35{fill:#ffb8b8;}.cls-36{fill:#2f2e41;}</style><linearGradient id="linear-gradient" x1="1765.85" y1="423.5" x2="1765.85" y2="1068.54" gradientTransform="matrix(1, 0, 0, -1, -47.24, 1543.37)" gradientUnits="userSpaceOnUse"><stop offset="0" stop-color="gray" stop-opacity="0.25"/><stop offset="0.54" stop-color="gray" stop-opacity="0.12"/><stop offset="1" stop-color="gray" stop-opacity="0.1"/></linearGradient></defs><path class="cls-1" d="M743.74,802.14c56.76-22.32,145.85-26.87,226.94-25.08,254.71,5.57,484.64,59.82,683.51,121.19,72,22.23,142.88,46.17,189.62,76.77,95.14,62.28,66.92,148.56-65.37,199.86-45,17.46-99.57,30.89-155.59,42.69-99.63,21.11-207.06,38-320.11,42.91-80.6,3.43-162.21.63-242.34-4.17-223.91-13.44-443.67-43-627.88-93.75-80.8-22.22-156.95-49.86-190.21-85.84s-12-81.53,70.51-102.82c34.14-8.8,74.91-12.78,114.85-16.5,58.79-5.5,118.52-10.93,171.56-22.1,54.81-11.54,119.69-33.86,108.84-59.4C696.39,848.49,687.05,824.43,743.74,802.14Z" transform="translate(-100 -338)"/><ellipse class="cls-2" cx="1622.72" cy="781.86" rx="139.55" ry="17.96"/><ellipse class="cls-2" cx="1293.52" cy="886.04" rx="139.55" ry="17.96"/><rect class="cls-2" x="1608.2" y="305.01" width="32.64" height="32.64"/><rect class="cls-2" x="1608.2" y="385.52" width="32.64" height="32.64"/><rect class="cls-2" x="1608.2" y="466.02" width="32.64" height="32.64"/><rect class="cls-2" x="1608.2" y="546.53" width="32.64" height="32.64"/><path class="cls-3" d="M1840.5,780.87s-19-94.27-11.7-106c0,0,.27-10.9-.17-24.8v-1.59a36.6,36.6,0,0,0,4,2.29,32.16,32.16,0,0,0,21.69,2.8l-5.73-6.39c-1.38-1.53-2.82-3.18-3.11-5.2s.52-3.82,1.24-5.62c5.45-13.77,5.73-31.09-4.77-41.61-8.87-8.83-11-20.24-20.66-28.31-7-5.91-10.9-14.58-14.55-23-3.09-7.08-6.2-14.22-8-21.73-1.38-5.86-1.93-11.93-3.83-17.66s-5.44-11.3-11-13.85c-2-.91-4.16-1.43-6-2.63-2.36-1.6-3.78-4.19-5.49-6.46-8.69-11.48-37.79-4.72-51.56-.06a29,29,0,0,0-10.19,5.64l.13-.2c.1-.17.23-.35.34-.52a18,18,0,0,0-3.86,4.31c-2,3.17-2.84,6.88-4.52,10.32-2,4.08-13.25,15.45-8.42,20a4.11,4.11,0,0,0,1.15.74,10,10,0,0,0,5.73.57l-.2.49a33.49,33.49,0,0,0-2.49,12.73c0,18.86,15.55,34.15,34.75,34.15a34.93,34.93,0,0,0,10.64-1.65c.08.44.15.88.23,1.31a4.67,4.67,0,0,0,.08.52h0l-.61.85a1.3,1.3,0,0,0-.1-.15l-18,25.18c-2.76,1.94-18.62,13.42-19.51,22-.94,9.43-1.88,20.46-1.88,20.46l-.13,2.36a7.09,7.09,0,0,1-5.74,1.55c-5.62-.92-5.62,20.66-5.62,20.66s-3.74,3.44-6.32.46-9.36,7.12-9.36,7.12l-42.58,1.84h0l-1,.06-2.29-7.11a3,3,0,0,0-3.75-1.91,4.71,4.71,0,0,0-.52.21l-.16.1-.3.2-.15.14-.23.24-.14.16-.06.07h0a2.88,2.88,0,0,0-.42,2.57l2,6.1c-8.22,1.65-16.62,6.31-9.77,19.14l-34.73-6.42,11.24,9.44,58,12c-.77,1.38-.26,3.37,2.14,6.18,10.32,12.14,29.15,15.43,36.72,16.28a65.12,65.12,0,0,0,7.45,12.62l-.65,12.09s-19.18,92.11-22.69,96.78a54.79,54.79,0,0,0,4.85-6.39c-5.57,18.93-13.35,44.83-15.39,48.71-3.28,6.2-6.32,31.27-2.58,32.88,1.15.49,4.43.25,9.11-.1V928l-.21,78.72s.94,48.29-1.64,52.89-3.27,14.25-3.27,14.25-10.33,19-18.51,26.7l-.18.16-.26-1.79s-9.83,12.42-31.59,11.72c0,0-13.1,8.51,6.32,9s44.22-.69,44.22-.69,17.32-26.39,31.83-23v20h4.44v-20.32a18.24,18.24,0,0,0,7.91-12,14.55,14.55,0,0,0-5.19-13.46,8.63,8.63,0,0,1-2.84-6.29l-.16.13a11.3,11.3,0,0,0-.15-1.24c-1.27-10.33-2.87-31.64,2.77-47.41,7.72-21.62,10.07-51.73,4.44-69.66a161.24,161.24,0,0,1-4.46-17.46c-.14-.74-.27-1.46-.38-2.12a91.86,91.86,0,0,1,11.39,2.29c13,3.6,41.53,4.26,65.86,4.07.06.66.13,1.36.21,2.06a75.41,75.41,0,0,0,2.7,14.37c3.06,9.18,4.46,49.66,4.46,49.66s3.93,33.29,1.79,46.83c-1.15,7.53-2.3,15.09-2.95,22.69v.15s-6.45,18.36-11.17,28.33c-.11.26-.24.51-.35.75a15,15,0,0,0-3.69.81s-6.32,12.63-12.62,14.72-4.22,9,10.05,6.44,35.81-4.59,35.81-4.59l.93-12.88,4.38-5.49-1.15,12.85,4.68-.92-.62-15.62,7.17-9s8.66-7.71-4.21-22.88v.33c-.14-.22-.27-.45-.42-.67v-.06c-2.13-3.31-3.83-9.47-.72-20.41,5.62-19.76,8.9-37.7,8.9-37.7s12.55-48.06-2.54-70.79h.66a38.19,38.19,0,0,1-3.24-10.1c-.08-.41-.15-.84-.21-1.27,11.17-.65,22.13-2.67,31.07-7C1850.33,913.07,1845,799,1840.5,780.87Zm-141.78-79.53v.23l-2.29.11Zm-7.87,1.09a2.46,2.46,0,0,0-1,.49,10.12,10.12,0,0,0-1.8,4.72l-3.58-.8s-2.52-.54-6.13-1.15L1676.6,704C1681.3,703.58,1686.19,703,1690.85,702.43Z" transform="translate(-100 -338)"/><polygon class="cls-4" points="1709.33 754.83 1707.96 771.09 1712.54 770.17 1711.85 752.53 1709.33 754.83"/><path class="cls-5" d="M1704.85,1015.61c-5.52,15.72-4,36.95-2.72,47.25.46,3.81.89,6.13.89,6.13s-8.26,18.8-8.94,19.51-24.29,15.12-24.29,15.12l-16.49,9.63s-16.73-7.34-8.71-9.86a12.23,12.23,0,0,0,4.32-3c8-7.64,18.13-26.61,18.13-26.61s.68-9.63,3.21-14.2,1.61-52.71,1.61-52.71l.19-78.44V918.25l31.39.23a70.39,70.39,0,0,0,1.36,10.33,155.34,155.34,0,0,0,4.37,17.4C1714.7,964.1,1712.4,994.07,1704.85,1015.61Z" transform="translate(-100 -338)"/><path class="cls-6" d="M1703,1069s-8.26,18.8-8.94,19.51-24.29,15.12-24.29,15.12l-16.49,9.63s-16.73-7.34-8.71-9.86a12.23,12.23,0,0,0,4.32-3l.72,5,5.49-.23,47.06-42.34C1702.59,1066.67,1703,1069,1703,1069Z" transform="translate(-100 -338)"/><path class="cls-4" d="M1702.44,1064l-47.32,42.63-5.49.23-1.15-8s-9.62,12.37-31,11.69c0,0-12.83,8.48,6.19,8.94s43.3-.69,43.3-.69,17-26.4,31.16-23v19.94h4.36v-20.12a18.14,18.14,0,0,0,7.74-11.94,14.65,14.65,0,0,0-5.07-13.4A8.68,8.68,0,0,1,1702.44,1064Z" transform="translate(-100 -338)"/><path class="cls-5" d="M1813.69,1040.13c-3.06,10.9-1.39,17,.7,20.33v.07a37.53,37.53,0,0,1,5.48,13.4l.19,1-21.53,31.39-11.69,4.59s-18.78-6.42-15.35-8.25c.86-.45,2.2-2.84,3.74-6.13,4.59-9.93,10.92-28.25,10.92-28.25v-.15c.67-7.56,1.73-15.1,2.9-22.61,2.1-13.5-1.76-46.66-1.76-46.66s-1.38-40.32-4.36-49.49a75.22,75.22,0,0,1-2.67-14.28c-.62-5.73-.76-10.46-.76-10.46s12.37-17.22,35,1.37a25.2,25.2,0,0,1,4.74,5.15c15.66,22.28,3,71.38,3,71.38S1819.19,1020.42,1813.69,1040.13Z" transform="translate(-100 -338)"/><path class="cls-6" d="M1820.09,1075l-21.53,31.39-11.68,4.59s-18.79-6.42-15.36-8.25c.86-.45,2.21-2.84,3.74-6.13,8-.07,12.08,7.5,12.08,7.5l10.07-1.6s13.29-26.12,16.28-27.72.46-11.92.46-11.92v-2.63c.08.09.15.19.24.28v.07a37.53,37.53,0,0,1,5.48,13.4Z" transform="translate(-100 -338)"/><path class="cls-4" d="M1788,1104.74s-5.74-10.54-16.74-6.64c0,0-6.18,12.62-12.37,14.66s-4.12,8.93,9.86,6.42,35-4.59,35-4.59l.92-12.84,14.21-18.1s8.47-7.68-4.14-22.8v2.63s2.53,10.33-.46,11.93-16.22,27.72-16.22,27.72Z" transform="translate(-100 -338)"/><path class="cls-6" d="M1703.48,918.46a70.55,70.55,0,0,0,1.35,10.33c-12.92-1.9-24.92-.95-32.78-.33V918.23Z" transform="translate(-100 -338)"/><path class="cls-6" d="M1820.56,934s-18.36.9-40.26,1.08c-.62-5.74-.76-10.46-.76-10.46s12.38-17.22,35,1.37a25.13,25.13,0,0,1,4.74,5.14A29.14,29.14,0,0,0,1820.56,934Z" transform="translate(-100 -338)"/><path class="cls-4" d="M1820.56,932s-80.43,3.89-104.94-3-48.81-.91-52.47-2.51-.69-26.58,2.52-32.77S1686.51,825,1686.51,825l17-88.44,17.86-4.93,1.27-.35,31.13-8.59,22.82-6.3s45.37,177.12,41.48,190.18a33.44,33.44,0,0,0-.67,15.37A38.62,38.62,0,0,0,1820.56,932Z" transform="translate(-100 -338)"/><path class="cls-7" d="M1644.35,676s-16.07,17.22-3.91,26.81,20.17.92,20.17.92Z" transform="translate(-100 -338)"/><path class="cls-6" d="M1644.35,676s-16.07,17.22-3.91,26.81,20.17.92,20.17.92Z" transform="translate(-100 -338)"/><path class="cls-5" d="M1774.16,562.85s-1.88,1.79-4.72,4.43c-4,3.77-10,9.29-15.32,13.92-7.34,6.39-13.4,11.09-11.23,7.08s1.75-11,.67-17.51c-.08-.44-.15-.87-.23-1.3a119.61,119.61,0,0,0-3.54-14.19s11.87-15.33,18.43-21.38c2.44-2.29,4.15-3.23,4.26-1.64.11,2.15,1.72,6.89,3.72,11.92a4.52,4.52,0,0,0,.18.47c1.33,3.44,2.83,7,4.15,10C1772.55,559.36,1774.16,562.85,1774.16,562.85Z" transform="translate(-100 -338)"/><path class="cls-6" d="M1766.38,544.65a34.09,34.09,0,0,1-22.82,26.12,119.75,119.75,0,0,0-3.77-15.49s22.34-28.86,22.69-23C1762.56,534.48,1764.3,539.39,1766.38,544.65Z" transform="translate(-100 -338)"/><path class="cls-6" d="M1741.34,578.48l2.89-4.07s1.92,11.68,9,6.53,7.39,38.78,7.39,38.78L1753,732.8l-54.65-3.27,1.55-54.64,6.18-27.55,15.3-40,9.1-13.23Z" transform="translate(-100 -338)"/><path class="cls-4" d="M1760.58,620.42l-6.88,102.24L1753,733.5l-30.48-1.83-1.14-.07-23-1.37,1.55-54.66,6.19-27.54,15.3-40,9.1-13.24,10.83-15.64,2.89-4.06s1.92,11.68,9,6.53l.15-.1h0C1760.26,577.11,1760.58,620.42,1760.58,620.42Z" transform="translate(-100 -338)"/><path class="cls-8" d="M1706.91,638.46s-2.75,5.74-8.26,4.81-5.49,20.66-5.49,20.66-3.66,3.44-6.19.45-9.18,7.11-9.18,7.11l-41.71,1.83s18.56,8.49,14.92,34.15c0,0,63-3.9,65.08-9.86S1706.91,638.46,1706.91,638.46Z" transform="translate(-100 -338)"/><path class="cls-9" d="M1706.91,638.46s-2.75,5.74-8.26,4.81-5.49,20.66-5.49,20.66-3.66,3.44-6.19.45-9.18,7.11-9.18,7.11l-41.71,1.83s18.56,8.49,14.92,34.15c0,0,63-3.9,65.08-9.86S1706.91,638.46,1706.91,638.46Z" transform="translate(-100 -338)"/><polygon class="cls-8" points="1485.7 348.81 1496.69 358.2 1587.2 377.21 1575.98 365.76 1485.7 348.81"/><path class="cls-8" d="M1741.51,582.09c-1.5,2.3-5.81,14-9.4,24.31-3,8.55-5.5,16.07-5.5,16.07s-5.84,38-8.82,44.91-1.37,33.68-1.37,33.68l-11.12,66.21s-5,34.15-12.82,54.54c-7.68,20.08-16.23,29.49-16.49,29.79,3.44-4.66,22.21-96.41,22.21-96.41l6.19-115.71s.91-11,1.83-20.4,19.51-22.23,19.51-22.23l17.93-25.49C1745.46,573.77,1744.25,578,1741.51,582.09Z" transform="translate(-100 -338)"/><path class="cls-5" d="M1694.76,730.8s-26.39-1.15-39.18-16.5,29.56-6.13,29.56-6.13l11,2.52Z" transform="translate(-100 -338)"/><path class="cls-6" d="M1818,906.55a33.39,33.39,0,0,0-.67,15.36c-28.79,2.05-59.6-5.73-59.6-5.73-5.74,5.27-20.85,13.06-20.85,13.06l-8.24-102.15c-5.27-13.77-7.34-85.93-7.34-85.93s.48-3.77,1.15-9.43a1,1,0,0,1,.06-.42c2-15.81,6.13-45.48,8.13-49.48,2.75-5.51-8.47-20.17-8.47-20.17l5.1-43.55.62-5.26c10.77-4.81,19-20.16,19-20.16l6.33-11.1h0c6.89-4.42,7.25,38.88,7.25,38.88l-6.89,102.25,22.82-6.3S1821.93,893.49,1818,906.55Z" transform="translate(-100 -338)"/><path class="cls-8" d="M1847.59,913.6c-31.39,15.59-88.44,1.15-88.44,1.15-5.74,5.28-20.85,13.06-20.85,13.06L1730,825.67c-5.25-13.77-7.32-85.93-7.32-85.93s6.64-53.84,9.39-59.33c.8-1.61.41-4-.54-6.57a83.1,83.1,0,0,1-5-38.43l2.21-18.72.61-5.25c10.77-4.82,19-20.17,19-20.17l5.74-10.06,10.56-18.52,5-8.77.84.77,6.49,5.87,6.89,5.74c9,7.58,24.51,20.91,32.52,29.07,7,7.19,9.27,35.13,9.92,56.17.42,13.85.17,24.71.17,24.71C1819.41,688,1838,781.84,1838,781.84,1842.32,800,1847.59,913.6,1847.59,913.6Z" transform="translate(-100 -338)"/><path class="cls-9" d="M1787.34,591s-21.55,41-19,56.59,9.61,33.22,6.18,37.34a12.66,12.66,0,0,1-10.09,5c-3.44.23-12.62,6.65-12.62,7.34s-8.48.68-16.07,3.9-18.79,5-18.79,5-21.8-.69-23.83,1.37-4.12,14.43.23,24.29,9.18,17.21,12.83,18.56,26.81-6.42,45.6-8.26,39.18-16.72,39.18-16.72,22.46-8,26.39-21.54-4.8-87.75-4.8-87.75S1805.89,581.64,1787.34,591Z" transform="translate(-100 -338)"/><path class="cls-9" d="M1784.58,587.59s-21.54,41-19,56.59,9.61,33.23,6.17,37.36a12.6,12.6,0,0,1-10.08,5c-3.44.23-12.62,6.65-12.62,7.33s-8.48.69-16.07,3.89-18.79,5-18.79,5-21.8-.69-23.82,1.38-4.13,14.44.23,24.29,9.18,17.21,12.83,18.55,26.81-6.41,45.6-8.24,39.18-16.73,39.18-16.73,22.45-8,26.34-21.53-4.81-87.76-4.81-87.76S1803.14,578.2,1784.58,587.59Z" transform="translate(-100 -338)"/><path class="cls-8" d="M1786.66,589s-21.54,41-19,56.59,9.62,33.23,6.19,37.35a12.66,12.66,0,0,1-10.09,5.05c-3.44.23-12.62,6.64-12.62,7.32s-8.47.69-16.07,3.9-18.79,5-18.79,5-21.81-.69-23.84,1.38-4.12,14.44.23,24.28,9.18,17.22,12.83,18.56,26.81-6.41,45.6-8.25,39.18-16.72,39.18-16.72,22.46-8,26.4-21.54-4.75-87.76-4.75-87.76S1805.21,579.63,1786.66,589Z" transform="translate(-100 -338)"/><path class="cls-6" d="M1786.19,699s-17.22-3.45-11.23,2.29,6,10.77,13.3,10.54S1786.19,699,1786.19,699Z" transform="translate(-100 -338)"/><path class="cls-6" d="M1815.28,822.46s-7.78,5.26,7.11,17.41S1815.28,822.46,1815.28,822.46Z" transform="translate(-100 -338)"/><path class="cls-6" d="M1800.43,865.76c0,.69-2.75,25.25,7.55,31.39S1800.43,865.76,1800.43,865.76Z" transform="translate(-100 -338)"/><path class="cls-5" d="M1636.79,673.27c-8.3.28-26.25,2.82-17,20.19,8.23,15.36,22.06,5.09,29.84-2.7A29.29,29.29,0,0,0,1636.79,673.27Z" transform="translate(-100 -338)"/><path class="cls-5" d="M1650.53,689.81Z" transform="translate(-100 -338)"/><path class="cls-5" d="M1649.79,690.62l.34-.36Z" transform="translate(-100 -338)"/><path class="cls-6" d="M1783.91,567c-8.82,6-16.21,11.11-17.66,12.17-3.94,2.92-11.47,20.11-16.33,28.87-3.87,7.06-16.43,8.88-21.17,9.32l.61-5.24c10.77-4.82,19-20.18,19-20.18l21.31-37.34,7.33,6.66Z" transform="translate(-100 -338)"/><path class="cls-10" d="M1783.91,566.31c-8.82,6-16.21,11.11-17.66,12.18-3.94,2.92-11.47,20.1-16.33,28.87-3.87,7-16.43,8.87-21.17,9.31l.61-5.24c10.77-4.82,19-20.18,19-20.18l21.31-37.34,7.33,6.64S1779.77,562.83,1783.91,566.31Z" transform="translate(-100 -338)"/><path class="cls-5" d="M1766.94,537.07a34,34,0,1,1-14.75-28A33.9,33.9,0,0,1,1766.94,537.07Z" transform="translate(-100 -338)"/><path class="cls-6" d="M1826.35,651.55a30.21,30.21,0,0,1-11-11.8c-1.91-3.78-3.19-8.16-6.46-10.84-3-2.41-6.88-3-10.56-4.08-12.07-3.56-22.19-14.58-22.57-27.16-.19-5.92,1.66-11.83.82-17.7a19.47,19.47,0,0,0-3.83-9.12,30.32,30.32,0,0,0-3.32-3.57c-1.6-1.52-3.29-3-4.76-4.59a18.39,18.39,0,0,1-2.41-3.27,16.35,16.35,0,0,1-1.32-3c-2.29-7-.21-15.36-2.73-22.47l-.14-.39c-.95-2.52-2.89-5-5.59-5.24s-5,2-7.57,3c-5.38,2.09-11.19-1.47-15.68-5.09s-9.55-7.77-15.25-7c-3.78.54-6.76,3.11-10.24,4.44a14.28,14.28,0,0,1-2.42.7,34,34,0,0,1,65.61,12.68,33.34,33.34,0,0,1-.74,7.11,4.52,4.52,0,0,0,.18.47c1.33,3.44,2.83,7,4.15,10l6.49,5.87,6.89,5.74c9,7.58,24.51,20.91,32.52,29.07C1823.48,602.58,1825.68,630.52,1826.35,651.55Z" transform="translate(-100 -338)"/><path class="cls-11" d="M1703.35,502.73c1.64-3.34,2.46-7.08,4.42-10.25,2.88-4.59,7.91-7.53,13.07-9.3,13.49-4.65,42-11.4,50.5,0,1.67,2.29,3.06,4.84,5.38,6.42,1.77,1.21,3.9,1.72,5.84,2.63,5.43,2.55,8.9,8.1,10.74,13.77s2.4,11.76,3.76,17.6c1.73,7.49,4.77,14.6,7.8,21.65,3.57,8.34,7.36,17,14.24,22.87,9.4,8,11.48,19.4,20.2,28.22,10.33,10.46,10,27.74,4.68,41.45-.7,1.8-1.5,3.69-1.22,5.6s1.7,3.66,3,5.19l5.65,6.37c-13.36,3.23-28.48-3.75-34.7-16-1.91-3.79-3.19-8.15-6.47-10.84-2.94-2.41-6.89-3-10.55-4.07-12.07-3.58-22.19-14.61-22.57-27.19-.19-5.91,1.66-11.82.82-17.67a19.45,19.45,0,0,0-3.84-9.18c-3.16-4.12-7.92-6.89-10.49-11.48-4.35-7.68-1.05-17.65-4.18-25.89-1-2.53-2.89-5-5.59-5.25s-5,2-7.58,3c-5.38,2.08-11.18-1.46-15.67-5.1s-9.55-7.77-15.26-7c-3.78.52-6.75,3.09-10.23,4.44-2.57,1-7.78,1.87-10-.3C1690.36,518.15,1701.36,506.82,1703.35,502.73Z" transform="translate(-100 -338)"/><path class="cls-6" d="M1819.94,635.16c-1.93-3.78-3.19-8.14-6.47-10.83-2.94-2.41-6.89-3-10.56-4.07-12.06-3.57-22.18-14.6-22.57-27.18-.19-5.91,1.66-11.83.83-17.69a19.59,19.59,0,0,0-3.84-9.12c-3.17-4.12-7.93-6.89-10.49-11.48-4.35-7.67-1-17.64-4.19-25.89-1-2.51-2.89-5-5.58-5.25s-5,2.06-7.58,3.06c-5.38,2.09-11.19-1.47-15.67-5.1s-9.56-7.77-15.26-7c-3.78.53-6.76,3.11-10.23,4.44-2.57,1-7.79,1.88-10-.29-4.73-4.59,6.28-15.9,8.25-20,1.64-3.35,2.46-7.08,4.43-10.25.1-.17.22-.34.33-.51a18.17,18.17,0,0,0-3.77,4.29c-2,3.17-2.78,6.88-4.42,10.25-2,4.06-13,15.4-8.25,20,2.29,2.18,7.46,1.28,10,.29,3.44-1.34,6.45-3.91,10.22-4.44,5.74-.81,10.79,3.33,15.27,7s10.33,7.18,15.67,5.09c2.58-1,4.82-3.24,7.58-3s4.59,2.72,5.59,5.25c3.13,8.24-.17,18.21,4.18,25.89,2.57,4.51,7.33,7.33,10.49,11.48a19.55,19.55,0,0,1,3.84,9.18c.84,5.85-1,11.76-.83,17.67.38,12.63,10.51,23.61,22.58,27.19,3.64,1.08,7.61,1.65,10.55,4.06,3.29,2.7,4.59,7.06,6.47,10.85,6.22,12.24,21.33,19.22,34.69,16l-2.66-3C1837,652.17,1825.23,645.59,1819.94,635.16Z" transform="translate(-100 -338)"/><path class="cls-6" d="M1740.82,582.78c-1.5,2.3-5.81,14.05-9.4,24.31-3.36-1.31-6.41-9.65-6.41-9.65l17.92-25.5C1744.77,574.46,1743.56,578.65,1740.82,582.78Z" transform="translate(-100 -338)"/><path class="cls-10" d="M1741.51,582.09c-1.5,2.3-5.81,14-9.4,24.31-3.36-1.29-6.42-9.65-6.42-9.65l17.93-25.49C1745.46,573.77,1744.25,578,1741.51,582.09Z" transform="translate(-100 -338)"/><path class="cls-12" d="M1637.28,699.34,1627.34,668a2.92,2.92,0,0,1,1.89-3.68h0a2.94,2.94,0,0,1,3.68,1.9l9.93,31.31-1,6.55Z" transform="translate(-100 -338)"/><path class="cls-13" d="M1628.28,665.24h0a2.94,2.94,0,0,1,3.68,1.91l9.94,31.31-.74,4.91.72.76,1-6.55-10-31.31a2.93,2.93,0,0,0-3.67-1.91h0a2.93,2.93,0,0,0-1.53,1.15A4.72,4.72,0,0,1,1628.28,665.24Z" transform="translate(-100 -338)"/><polygon class="cls-14" points="1537.28 361.34 1542.85 359.57 1542.04 364.94 1541.87 366.13 1540.24 364.43 1537.28 361.34"/><path class="cls-15" d="M1640.24,702.43a1.27,1.27,0,0,1,.35-.3.52.52,0,0,1,.54,0,1.49,1.49,0,0,1,.2.31,1,1,0,0,0,.71.47l-.17,1.15Z" transform="translate(-100 -338)"/><path class="cls-5" d="M1627.28,679.13s19.94-.11,15.24,8.37-12,9.5-12,9.5Z" transform="translate(-100 -338)"/><rect class="cls-2" x="348.22" y="187.62" width="126.83" height="2.5"/><rect class="cls-2" x="348.22" y="193.46" width="126.83" height="9.6"/><rect class="cls-2" x="348.22" y="234.54" width="126.83" height="15.45"/><path class="cls-2" d="M575.05,619.47v15.44H475.83q-6.46-4.38-12.76-9c-2.91-2.13-5.81-4.31-8.72-6.42Z" transform="translate(-100 -338)"/><polygon class="cls-16" points="342.42 336.8 359.17 335.88 360.3 287.78 360.56 276.33 342.89 273.07 342.78 287.84 342.42 336.8"/><polygon class="cls-16" points="355.45 328.43 441.51 381.93 443.37 398.21 434.06 398.67 434.06 387.04 377.78 355.41 445.69 439.61 445.69 452.63 434.53 452.63 435.46 438.21 356.85 348.9 347.08 349.83 264.27 443.79 262.42 459.62 251.25 460.08 253.11 443.79 318.7 361.93 274.97 392.16 274.04 405.19 265.2 405.65 266.14 389.83 349.41 325.63 355.45 328.43"/><path class="cls-17" d="M563.56,574.92a153.82,153.82,0,0,1-20.27-33c-5.92-13.1-12.41-28.23-12.91-32.7-1-8.38-24.65-25.12-50.7-26.05-17-.61-43.45-13.87-59.83-23a121.69,121.69,0,0,0-50.2-15.5c-19.15-1.45-37.17,2.31-28.1,24.55L463.36,616.66S567.25,635,573.65,605.53a25.32,25.32,0,0,1,1.48-4.32C576.35,598.43,576.67,591.17,563.56,574.92Z" transform="translate(-100 -338)"/><path class="cls-18" d="M554.42,577.85a158.3,158.3,0,0,1-20.48-33.34c-5.52-12.25-11.39-26-11.85-30.14-.89-8-23.59-24-48.51-24.88-16.26-.59-41.58-13.24-57.24-22a116.55,116.55,0,0,0-48-14.77c-18.33-1.38-35.57,2.22-26.92,23.45L438,617.66s119.2,16.91,125.51-11.06a27.4,27.4,0,0,1,1.48-4.34C566.09,599.48,566.25,592.69,554.42,577.85Z" transform="translate(-100 -338)"/><path class="cls-6" d="M442.78,625.84c5.6,0,11.5,0,17.52-.06l.26-11.45-17.66-3.25Z" transform="translate(-100 -338)"/><g class="cls-19"><polygon points="274.97 389.37 318.7 359.13 313.69 365.38 274.97 392.16 274.04 405.19 265.2 405.65 265.37 402.85 274.04 402.39 274.97 389.37"/><polygon points="434.06 384.25 434.06 387.04 381.9 357.73 377.78 352.62 434.06 384.25"/><polygon points="445.69 449.84 445.69 452.63 434.53 452.63 434.71 449.84 445.69 449.84"/><polygon points="434.06 395.88 443.06 395.44 443.37 398.21 434.06 398.67 434.06 395.88"/><polygon points="262.42 456.83 264.27 441 347.08 347.04 356.85 346.11 435.46 435.42 435.3 438.03 356.85 348.9 347.08 349.83 264.27 443.79 262.42 459.62 251.25 460.08 251.57 457.27 262.42 456.83"/></g><path class="cls-6" d="M452.66,534.19s-21.78,15.93-12.25,16.11S452.66,534.19,452.66,534.19Z" transform="translate(-100 -338)"/><path class="cls-17" d="M544.07,621.35s-36.05-2.79-49.54-28.84c0,0-27.45-54.44-49.78-60.48S381,512.49,363.81,491.56s-24.43-37-24.43-37-4.44,16.94,9.55,36.91,19.07,50.73,28.83,83.34,13.49,45.55,31.17,47.49c13.32,1.4,83.78.69,117.46,0C537.41,622,544.07,621.35,544.07,621.35Z" transform="translate(-100 -338)"/><path class="cls-18" d="M544.07,621.35s-36.05-2.79-49.54-28.84c0,0-27.45-54.44-49.78-60.48S381,512.49,363.81,491.56s-24.43-37-24.43-37-4.44,16.94,9.55,36.91,19.07,50.73,28.83,83.34,13.49,45.55,31.17,47.49c13.32,1.4,83.78.69,117.46,0C537.41,622,544.07,621.35,544.07,621.35Z" transform="translate(-100 -338)"/><path class="cls-17" d="M535,621.35s-34.46-2.71-47.35-27.93c0,0-26.25-52.7-47.58-58.55s-60.92-18.93-77.37-39.19-23.35-35.81-23.35-35.81-4.21,16.48,9.12,35.81S366.7,544.77,376,576.3s12.89,44.15,29.79,46c12.73,1.35,80.07.67,112.27,0C528.63,622,535,621.35,535,621.35Z" transform="translate(-100 -338)"/><path class="cls-6" d="M562.9,607.78S544.07,615,533.37,611s-37.21-15.59-37.21-15.59S540.81,598.28,562.9,607.78Z" transform="translate(-100 -338)"/><circle class="cls-20" cx="247.64" cy="501.57" r="9.99"/><circle class="cls-20" cx="207.81" cy="450.57" r="9.99"/><path class="cls-21" d="M420.57,616.93v8.43c2.17.08,4.41.12,6.69.12,2,0,3.91,0,5.81-.09v-8.46Z" transform="translate(-100 -338)"/><ellipse class="cls-20" cx="327.26" cy="271.01" rx="46.17" ry="13.5"/><path class="cls-20" d="M381.49,609a5.52,5.52,0,0,0,2,3.91,13.13,13.13,0,0,0,1.47,1.21c6.87,4.91,23.41,8.38,42.72,8.38s36-3.5,42.84-8.46a10.26,10.26,0,0,0,1-.76,5.85,5.85,0,0,0,2.37-4.26c0-7.45-20.67-13.5-46.19-13.5S381.49,601.54,381.49,609Z" transform="translate(-100 -338)"/><path class="cls-21" d="M381.49,609a5.52,5.52,0,0,0,2,3.91,13.13,13.13,0,0,0,1.47,1.21c6.87,4.91,23.41,8.38,42.72,8.38s36-3.5,42.84-8.46a10.26,10.26,0,0,0,1-.76,5.85,5.85,0,0,0,2.37-4.26c0-7.45-20.67-13.5-46.19-13.5S381.49,601.54,381.49,609Z" transform="translate(-100 -338)"/><path class="cls-21" d="M381.1,609a5.47,5.47,0,0,0,2,3.91c5.89-1.46,9.95-2.69,9.95-2.69s40.7,2.28,78.06,3.06a5.81,5.81,0,0,0,2.38-4.26c0-7.45-20.67-13.5-46.19-13.5S381.1,601.54,381.1,609Z" transform="translate(-100 -338)"/><path class="cls-21" d="M349.17,581.1a54.29,54.29,0,0,0,44.62,23.28h72.49a48.79,48.79,0,0,0,41.63-23.28Z" transform="translate(-100 -338)"/><path class="cls-21" d="M381.49,609a5.52,5.52,0,0,0,2,3.91,13.13,13.13,0,0,0,1.47,1.21,695.86,695.86,0,0,0,85.56-.08,10.26,10.26,0,0,0,1-.76,5.85,5.85,0,0,0,2.37-4.26c0-7.45-20.67-13.5-46.19-13.5S381.49,601.54,381.49,609Z" transform="translate(-100 -338)"/><path class="cls-20" d="M340,607.76a699,699,0,0,0,175.35,0,12.27,12.27,0,0,0,12.33-12.21v-.06h0a12.28,12.28,0,0,0-12.27-12.27H340a12.27,12.27,0,0,0-12.27,12.27h0A12.27,12.27,0,0,0,340,607.76Z" transform="translate(-100 -338)"/><path class="cls-6" d="M439.05,649.34s-26.6-6.49-30.68-3S439.05,649.34,439.05,649.34Z" transform="translate(-100 -338)"/><path class="cls-6" d="M515.17,674.72s-11.2,6.49-12.38,11.81S515.17,674.72,515.17,674.72Z" transform="translate(-100 -338)"/><path class="cls-22" d="M317,1000.27s59.47-3.2,74-11.71,35-8.51,35.12-8.51l236.78-51.66L761.33,905l17.56-2.31-58-66.36-1.77-.77-85.49-37s-38.31,2.13-45.88,27.1a28.94,28.94,0,0,0-1.06,5.38,31.2,31.2,0,0,0,6,21.85c3,4.14,6.74,10,7.91,15.16.66,2.92.51,5.61-1.07,7.67a62.54,62.54,0,0,1-10.51,8.39c-20.85,13.84-73.55,36.63-165.61,1.72,0,0-39.37-38.85-69.17-22.35S317,1000.27,317,1000.27Z" transform="translate(-100 -338)"/><path class="cls-6" d="M600.59,868.1c.66,2.91.52,5.6-1.06,7.66A62.44,62.44,0,0,1,589,884.15l179.23,13.38-49.13-62-85.49-37s-38.31,2.13-45.88,27.1a28.94,28.94,0,0,0-1.06,5.38,31.2,31.2,0,0,0,6,21.85C595.71,857.09,599.42,862.92,600.59,868.1Z" transform="translate(-100 -338)"/><polygon class="cls-23" points="675.7 286.08 528.84 289.27 528.84 465.06 668.25 559.57 701.77 528.71 694.85 426.55 701.77 331.3 675.7 286.08"/><path class="cls-24" d="M859.23,595.3,687.77,542.51a25.65,25.65,0,0,0-9.58-1.06l-409.6,29.9a193.42,193.42,0,0,0-97.54,34.4c-26.51,18.7-52.76,47.4-64.92,90.85A173.54,173.54,0,0,0,108,794.31L144.1,911.37S117,657,387.8,644.26Z" transform="translate(-100 -338)"/><path class="cls-13" d="M592.69,852.93c3,4.14,6.73,10,7.9,15.17,4.64-5.38,5.64-11.44-1.06-16.29-8.4-6.1-11.2-16.7-11.82-26.11a30,30,0,0,0-1.07,5.38A31.24,31.24,0,0,0,592.69,852.93Z" transform="translate(-100 -338)"/><path class="cls-23" d="M162.73,881.57,183,950.21l45.76,44.69,57.46,11.71,89.39-16V673s-15.43-10.11-17-10.11-44.7,6.92-44.7,6.92l-97.59,70-4,2.9-43.63,64.92Z" transform="translate(-100 -338)"/><polygon class="cls-23" points="275.56 321.73 275.56 652.69 266.94 654.23 266.94 321.73 275.56 321.73"/><polygon class="cls-6" points="675.7 286.08 528.84 289.27 528.84 465.06 668.25 559.57 701.77 528.71 694.85 426.55 701.77 331.3 675.7 286.08"/><polygon class="cls-6" points="275.56 321.73 275.56 652.69 266.94 654.23 266.94 321.73 275.56 321.73"/><path class="cls-6" d="M214.34,761.89c63.85-52.46,134.83-60.18,161.22-61.14V673s-15.43-10.11-17-10.11-44.7,6.92-44.7,6.92l-97.59,70Z" transform="translate(-100 -338)"/><path class="cls-23" d="M924.15,733.65s-6.59,17.41-13.66,37.68c-6.25,18-12.89,38.31-15.61,50.64-1.06,4.72-3.73,9.58-7.51,14.34-17.23,21.87-56.93,43.06-63.79,50.58-8.35,9.17-55.33,15.78-55.33,15.78V620.35l31.39-10.11h39.91l51.61,23.42L917.76,673Z" transform="translate(-100 -338)"/><path class="cls-17" d="M271.17,593.29s-3.64,16.94,12.54,18.94l1-1.87S272.15,598.55,271.17,593.29Z" transform="translate(-100 -338)"/><path class="cls-17" d="M289.86,610.23l-3.76.8-.37.07s-10.05-8.15-9.92-26.35a44.37,44.37,0,0,0,4.8,7.59C284.59,597.61,289.11,604.64,289.86,610.23Z" transform="translate(-100 -338)"/><path class="cls-17" d="M291.13,612a2.36,2.36,0,0,1-2,.26c-9.66-2.26-6.39-33.75-6.39-33.75.54.26,1.12,4.26,3.35,9.43C290,597,294.24,609.69,291.13,612Z" transform="translate(-100 -338)"/><path class="cls-17" d="M312.59,593.29s.62,16.94-15.56,18.94l-1-1.87S311.52,598.55,312.59,593.29Z" transform="translate(-100 -338)"/><path class="cls-17" d="M307.92,584.75C308.05,603,295,611.1,295,611.1l-.38-.07-3.75-.8c.74-5.59,5.32-12.62,9.24-17.89A41,41,0,0,1,307.92,584.75Z" transform="translate(-100 -338)"/><path class="cls-17" d="M294.57,610.32a6,6,0,0,1-2.13,1.65h0a3.74,3.74,0,0,1-.8.26c-2.37.56-3.19-1.16-3.06-4.07.22-5.19,3.48-14.18,6.38-20.91a26.12,26.12,0,0,1,6.07-8.77S300.88,603.06,294.57,610.32Z" transform="translate(-100 -338)"/><path class="cls-17" d="M291.87,567.44s-10.8,38.31-1.5,44S294.25,570.83,291.87,567.44Z" transform="translate(-100 -338)"/><path class="cls-6" d="M271.17,593.29s-3.64,16.94,12.54,18.94l1-1.87S272.15,598.55,271.17,593.29Z" transform="translate(-100 -338)"/><path class="cls-6" d="M289.86,610.23l-3.76.8-.37.07s-10.05-8.15-9.92-26.35a44.37,44.37,0,0,0,4.8,7.59C284.59,597.61,289.11,604.64,289.86,610.23Z" transform="translate(-100 -338)"/><path class="cls-6" d="M291.13,612a2.36,2.36,0,0,1-2,.26c-9.66-2.26-6.39-33.75-6.39-33.75.54.26,1.12,4.26,3.35,9.43C290,597,294.24,609.69,291.13,612Z" transform="translate(-100 -338)"/><path class="cls-6" d="M312.59,593.29s.62,16.94-15.56,18.94l-1-1.87S311.52,598.55,312.59,593.29Z" transform="translate(-100 -338)"/><path class="cls-6" d="M307.92,584.75C308.05,603,295,611.1,295,611.1l-.38-.07-3.75-.8c.74-5.59,5.32-12.62,9.24-17.89A41,41,0,0,1,307.92,584.75Z" transform="translate(-100 -338)"/><path class="cls-6" d="M294.57,610.32a6,6,0,0,1-2.13,1.65h0a3.74,3.74,0,0,1-.8.26c-2.37.56-3.19-1.16-3.06-4.07.22-5.19,3.48-14.18,6.38-20.91a26.12,26.12,0,0,1,6.07-8.77S300.88,603.06,294.57,610.32Z" transform="translate(-100 -338)"/><path class="cls-6" d="M291.87,567.44s-10.8,38.31-1.5,44S294.25,570.83,291.87,567.44Z" transform="translate(-100 -338)"/><path class="cls-17" d="M271.17,593.29s-2.13,16.94,14,18.94l1-1.87S272.15,598.55,271.17,593.29Z" transform="translate(-100 -338)"/><path class="cls-17" d="M291.37,610.23l-3.77.8-.37.07s-11.55-8.15-11.42-26.35c0,0,3,3.19,6.3,7.59C286.09,597.61,290.61,604.64,291.37,610.23Z" transform="translate(-100 -338)"/><path class="cls-6" d="M291.37,610.23l-3.77.8c-3.57-3.14-5-11.32-5.49-18.69C286.09,597.61,290.61,604.64,291.37,610.23Z" transform="translate(-100 -338)"/><path class="cls-17" d="M292.64,612a2.38,2.38,0,0,1-2,.26c-9.66-2.26-7.9-33.75-7.9-33.75.54.26,2.63,4.26,4.85,9.43C291.46,597,295.74,609.69,292.64,612Z" transform="translate(-100 -338)"/><path class="cls-17" d="M312.59,593.29s2.12,16.94-14,18.94l-1-1.87S311.52,598.55,312.59,593.29Z" transform="translate(-100 -338)"/><path class="cls-17" d="M307.92,584.75c.13,18.2-11.41,26.35-11.41,26.35l-.38-.07-3.76-.8c.74-5.59,5.32-12.62,9.25-17.89C305,587.92,307.92,584.75,307.92,584.75Z" transform="translate(-100 -338)"/><path class="cls-6" d="M301.62,592.34c-.49,6.87-1.74,14.44-4.8,18a6.6,6.6,0,0,1-.69.71l-3.76-.8C293.11,604.64,297.69,597.61,301.62,592.34Z" transform="translate(-100 -338)"/><path class="cls-17" d="M296.07,610.32a5.92,5.92,0,0,1-2.13,1.65h0a4.3,4.3,0,0,1-.79.26c-2.38.56-3.19-1.16-3.07-4.07.23-5.19,3.49-14.18,6.38-20.91,2.13-4.85,4.06-8.51,4.57-8.77C301,578.48,302.39,603.06,296.07,610.32Z" transform="translate(-100 -338)"/><path class="cls-6" d="M292.64,612a2.63,2.63,0,0,1-1.53-.49c-4.54-2.83-4.64-13.46-3.55-23.57C291.46,597,295.74,609.69,292.64,612Z" transform="translate(-100 -338)"/><path class="cls-6" d="M296.07,610.32c-.52,1.13-1.22,1.73-2.13,1.65h0a3,3,0,0,1-1.29-.49,6.87,6.87,0,0,1-2.57-3.32c.23-5.19,3.49-14.18,6.38-20.91C297.51,596.59,297.86,606.49,296.07,610.32Z" transform="translate(-100 -338)"/><path class="cls-17" d="M291.87,567.44s-9.28,38.31,0,44S294.25,570.83,291.87,567.44Z" transform="translate(-100 -338)"/><polygon class="cls-23" points="206.42 275.37 205.77 278.75 203.41 291.17 180.95 291.17 178.59 278.75 177.94 275.37 206.42 275.37"/><polygon class="cls-6" points="206.42 275.37 205.77 278.75 178.59 278.75 177.94 275.37 206.42 275.37"/><rect class="cls-23" x="172.54" y="271.6" width="38.64" height="6.4"/><path class="cls-24" d="M842.74,624S919.1,671.92,902.4,749c-1.37,6.29-2.55,12.6-3.32,19-3.06,25-21.38,96.59-130.83,129.58V905l46.43-13,31.52-17.38,24.06-21.59,29.41-35.87,13.66-29.27,5-38.54,2.84-44-7-37.69-16.59-24.55-20.22-15.73Z" transform="translate(-100 -338)"/><path class="cls-22" d="M139,829.58c-7.21,38.31-1.62,78.17,17.22,112.34,54.92,99.63,171.64,70.31,206.08,59,8.19-2.7,16.49-5,24.9-6.93l379.32-86C897,885.34,924,779.62,924,779.62c25.85-81.54,8.13-129-15.26-156A92.37,92.37,0,0,0,834,592.43l-45,2.38L389.05,638.45C202.08,640.45,152.14,759.45,139,829.58Zm37.05,4.8c12.61-60.29,62.07-147.75,221.15-153.14,7.3-.26,14.59-.9,21.84-1.87l357.69-47.78,41.42-2.13c31.12-1.56,61.15,12.92,78.4,38.86,16.47,24.78,25.38,63.85,5,124.58,0,0-24.93,92.29-145.65,112.11L405.49,980c-8,1.7-15.85,3.79-23.63,6.19-31.77,9.81-137.44,34.69-188.76-48.87-18.87-30.72-24.49-67.69-17.1-103Z" transform="translate(-100 -338)"/><path class="cls-25" d="M642.31,593.3,751,579.7a4.16,4.16,0,0,0,2.48-7l-45.6-47.38a4.16,4.16,0,0,0-3.47-1.24l-83.12,9.31a4.15,4.15,0,0,0-3.66,4.59,4.05,4.05,0,0,0,.25,1l20,51.69A4.16,4.16,0,0,0,642.31,593.3Z" transform="translate(-100 -338)"/><path class="cls-6" d="M642.31,593.3,751,579.7a4.16,4.16,0,0,0,2.48-7l-45.6-47.38a4.16,4.16,0,0,0-3.47-1.24l-83.12,9.31a4.15,4.15,0,0,0-3.66,4.59,4.05,4.05,0,0,0,.25,1l20,51.69A4.16,4.16,0,0,0,642.31,593.3Z" transform="translate(-100 -338)"/><path class="cls-25" d="M643.55,592.09l108.7-13.66a4.18,4.18,0,0,0,3.61-4.67,4.25,4.25,0,0,0-1.13-2.36L709.13,524a4.2,4.2,0,0,0-3.47-1.26l-83.11,9.31a4.15,4.15,0,0,0-3.42,5.65l20,51.69A4.19,4.19,0,0,0,643.55,592.09Z" transform="translate(-100 -338)"/><path class="cls-26" d="M708.33,542.59l-32.65,2.62-46.56-3h.8L673.05,538c9.88-3.63,3-25,3-25l33,1.68,2.64.14C723.45,542.18,708.33,542.59,708.33,542.59Z" transform="translate(-100 -338)"/><path class="cls-6" d="M708.33,542.59l-32.65,2.62-46.56-3h.8L677,543.86l31.54-3.43c9-2.35,3.83-17.89.6-25.71l2.64.13C723.45,542.18,708.33,542.59,708.33,542.59Z" transform="translate(-100 -338)"/><path class="cls-27" d="M765.52,348.45l-10,143.27-1.36,18.8a8.11,8.11,0,0,1-8.2,7.59h-3l-150.38-.9a4.24,4.24,0,0,1-4.19-4.29c0-.12,0-.24,0-.36l1.35-18.81,10.59-126a8.64,8.64,0,0,1,5.78-7.31L749.44,339c4.87-1.7,9.84-1.1,12.94,1.49A9.11,9.11,0,0,1,765.52,348.45Z" transform="translate(-100 -338)"/><path class="cls-28" d="M755.53,491.72l-1.36,18.8a8.11,8.11,0,0,1-8.2,7.59h-3l-150.38-.9a4.24,4.24,0,0,1-4.19-4.29c0-.12,0-.24,0-.36l1.35-18.81Z" transform="translate(-100 -338)"/><ellipse class="cls-8" cx="554.71" cy="169.31" rx="2.02" ry="4.03"/><path class="cls-26" d="M660.56,560.93s41.12-15.53,52.21-4.24c0,0,1.81,3.44-5.65,4.24L677,563.35S664.59,564.55,660.56,560.93Z" transform="translate(-100 -338)"/><path class="cls-28" d="M661.66,556.89c8.12-3.3,32.39-11.84,48-2.39,0,0-17.21-1.91-26.68,3.56s-22.37,2.87-22.37,2.87l-.19-.34a2.61,2.61,0,0,1,1-3.56Z" transform="translate(-100 -338)"/><path class="cls-28" d="M765.52,348.45l-11.29,162.1a8.13,8.13,0,0,1-8.21,7.59h-3a28.54,28.54,0,0,0,5.25-6.77s11.09-162.88,11.9-166.92a8.25,8.25,0,0,1,2.24-4A9.13,9.13,0,0,1,765.52,348.45Z" transform="translate(-100 -338)"/><path class="cls-6" d="M765.52,348.45l-11.29,162.1a8.13,8.13,0,0,1-8.21,7.59h-3a28.54,28.54,0,0,0,5.25-6.77s11.09-162.88,11.9-166.92a8.25,8.25,0,0,1,2.24-4A9.13,9.13,0,0,1,765.52,348.45Z" transform="translate(-100 -338)"/><rect class="cls-2" x="547.17" y="408.96" width="141.75" height="2.79"/><rect class="cls-2" x="547.17" y="415.49" width="141.75" height="10.73"/><rect class="cls-2" x="547.17" y="461.41" width="141.75" height="17.26"/><path class="cls-2" d="M647.17,851.85v17.26H758.06q7.22-4.9,14.26-10.07c3.25-2.38,6.5-4.82,9.75-7.18Z" transform="translate(-100 -338)"/><polygon class="cls-16" points="695.4 575.69 676.68 574.66 675.42 520.91 675.13 508.11 694.87 504.47 695 520.97 695.4 575.69"/><polygon class="cls-16" points="680.83 566.33 584.66 626.13 582.58 644.33 592.97 644.85 592.97 631.85 655.88 596.5 579.98 690.59 579.98 705.15 592.45 705.15 591.41 689.03 679.27 589.22 690.19 590.26 782.74 695.27 784.82 712.96 797.3 713.48 795.22 695.27 721.91 603.77 770.78 637.57 771.82 652.12 781.7 652.64 780.66 634.97 687.59 563.21 680.83 566.33"/><path class="cls-17" d="M660,802.06a171.64,171.64,0,0,0,22.65-36.92c6.62-14.64,13.88-31.55,14.43-36.55,1.08-9.36,27.55-28.08,56.67-29.12,19-.68,48.56-15.5,66.86-25.73a136.21,136.21,0,0,1,56.11-17.33c21.41-1.61,41.54,2.59,31.41,27.43L772,848.71s-116.1,20.46-123.26-12.43a27.28,27.28,0,0,0-1.66-4.83C645.72,828.34,645.36,820.22,660,802.06Z" transform="translate(-100 -338)"/><path class="cls-18" d="M670.23,805.33a176.36,176.36,0,0,0,22.88-37.26c6.18-13.69,12.73-29,13.25-33.68,1-8.93,26.36-26.82,54.22-27.81,18.16-.65,46.46-14.8,64-24.58a130.24,130.24,0,0,1,53.69-16.5C898.73,664,918,668,908.33,691.71l-108,158.13s-133.22,18.9-140.27-12.37a31,31,0,0,0-1.66-4.86C657.18,829.52,657,821.92,670.23,805.33Z" transform="translate(-100 -338)"/><path class="cls-6" d="M795,859c-6.26,0-12.86,0-19.58-.07l-.3-12.8,19.75-3.63Z" transform="translate(-100 -338)"/><g class="cls-19"><polygon points="770.78 634.45 721.91 600.66 727.51 607.64 770.78 637.57 771.82 652.12 781.7 652.64 781.51 649.51 771.82 649 770.78 634.45"/><polygon points="592.97 628.73 592.97 631.85 651.28 599.09 655.88 593.38 592.97 628.73"/><polygon points="579.98 702.03 579.98 705.15 592.45 705.15 592.25 702.03 579.98 702.03"/><polygon points="592.97 641.73 582.92 641.23 582.58 644.33 592.97 644.85 592.97 641.73"/><polygon points="784.82 709.84 782.74 692.15 690.19 587.14 679.27 586.1 591.41 685.92 591.6 688.83 679.27 589.22 690.19 590.26 782.74 695.27 784.82 712.96 797.3 713.48 796.94 710.34 784.82 709.84"/></g><path class="cls-6" d="M784,756.54s24.35,17.81,13.69,18S784,756.54,784,756.54Z" transform="translate(-100 -338)"/><path class="cls-17" d="M681.8,854s40.29-3.12,55.36-32.23c0,0,30.68-60.84,55.64-67.6S864,732.29,883.26,708.9s27.3-41.33,27.3-41.33,5,18.93-10.66,41.25-21.32,56.7-32.24,93.14S852.59,852.87,832.83,855c-14.89,1.57-93.63.78-131.28,0C689.24,854.7,681.8,854,681.8,854Z" transform="translate(-100 -338)"/><path class="cls-18" d="M681.8,854s40.29-3.12,55.36-32.23c0,0,30.68-60.84,55.64-67.6S864,732.29,883.26,708.9s27.3-41.33,27.3-41.33,5,18.93-10.66,41.25-21.32,56.7-32.24,93.14S852.59,852.87,832.83,855c-14.89,1.57-93.63.78-131.28,0C689.24,854.7,681.8,854,681.8,854Z" transform="translate(-100 -338)"/><path class="cls-17" d="M691.93,854s38.52-3,52.92-31.21c0,0,29.33-58.9,53.18-65.44s68.08-21.15,86.47-43.8,26.1-40,26.1-40,4.71,18.41-10.2,40S880,768.37,869.59,803.61,855.19,852.94,836.3,855c-14.23,1.51-89.5.75-125.49,0C699.05,854.73,691.93,854,691.93,854Z" transform="translate(-100 -338)"/><path class="cls-6" d="M660.74,838.79s21.06,8.06,33,3.64S735.34,825,735.34,825,685.44,828.17,660.74,838.79Z" transform="translate(-100 -338)"/><path class="cls-6" d="M1175.24,618.48c8.87,23.14,17.16,46.51,25.63,69.81,1.12,3.06,2.48,5.85,5.59,7.34a2.15,2.15,0,0,0,2.81,1.31c7.45,1.32,24.94-4.36,23.08,8.17.51,7.65-1.61,15.61,3,22.83a5.46,5.46,0,0,1,.14,4.85c-4.61,7-2.31,14.89-3.54,22.28-.05,66.23.93,132.45-.16,198.56q.09,58.23.17,116.43c0,2.81.06,5.82-3.88,6.3a.88.88,0,0,1-.8.26l-2.44,2.31c-3.93,11.62-.8,25.53-2,38,11.41,2.37,24.42,3.16,35.3.11-3.55-9.11,10.89-5.35,15.92-5.76,13.16-1.4,26.36-.45,39.55-.51,3.23.27,1.59,5,2.13,7.22l1.91,1.83a9.89,9.89,0,0,1,6.18,0c.4-.54.79-1.08,1.19-1.61-.08-11.22-.17-22.45-.2-33.68,0-8.28,0-8.3,8.56-8.3,52-1.06,104.81,2,156.44-1.14,0-8.06-7.33-8.53-13.65-8.25-64.7-1.31-130.1,1.67-194.46-.87-10.08,3.23-20.81.51-31.22,1.34-7.56.41-6.51-7.63-6.54-12.85q0-157,0-314.05c-.08-2.79-.25-5.49-3.88-2.22-1.13,1.5-4.18.33-3-1.54,3.67-5.82,2.11-11.34-1.49-16.33,3.67-3,4.54,2.64,7.22,2,1.92-.79,1.16-3,1.18-4.53-.27-21.23,5-32.37-22.21-29.41-6.29.44-9.88-2.77-11.89-8.2q-7.71-20.79-15.22-41.64c-4.31-12-8.48-24-12.65-36-.46-1.32-1-2.42-2.36-2.88C1172.92,604.76,1172.28,610.75,1175.24,618.48Z" transform="translate(-100 -338)"/><path class="cls-29" d="M1351.68,1120.11l184.29,0v-2.25c-10.81-1.31-21.67-1.15-32.53-1.05l-.67,1.81,0,0-25.18-.42c-3.29.88-6.59,1.8-9.28-1.38-37.06-.6-74.11.42-111.15,1.09C1355,1117.94,1353,1118.07,1351.68,1120.11Z" transform="translate(-100 -338)"/><path class="cls-30" d="M1243.93,1017.29v38.11c0-.34,0-.69,0-1Q1244,1035.85,1243.93,1017.29Zm-7.15-279.6a1.28,1.28,0,0,0,.77.88A1.44,1.44,0,0,1,1236.78,737.69Z" transform="translate(-100 -338)"/><path class="cls-30" d="M1298.34,687.43c2.83.2,5.71.64,8.44,1.1A33.77,33.77,0,0,0,1298.34,687.43ZM1281,694.77a9.36,9.36,0,0,1,6.65-6.59C1284.09,688.9,1281.46,691,1281,694.77Z" transform="translate(-100 -338)"/><path class="cls-30" d="M1230.44,698.45s0,.06,0,.08l.23.17Zm2,5.23a11.08,11.08,0,0,1-.12,1.34c.28,4.16-.23,8.43,0,12.61C1232.21,712.79,1233,707.75,1232.47,703.68Zm48.83,36.45c.24,1.27.45,2.54.6,3.81.39,1.63.67,3.3.91,5A66.11,66.11,0,0,0,1281.3,740.13Z" transform="translate(-100 -338)"/><path class="cls-30" d="M1237.55,738.57a1.28,1.28,0,0,1-.77-.88A1.44,1.44,0,0,0,1237.55,738.57Z" transform="translate(-100 -338)"/><path class="cls-30" d="M1243.93,1017.29q0,18.54,0,37.1c0,.32,0,.67,0,1Z" transform="translate(-100 -338)"/><path class="cls-30" d="M1324.89,1101.31q0,8.4.1,16.84v-1.44C1325,1111.58,1324.94,1106.45,1324.89,1101.31Z" transform="translate(-100 -338)"/><path class="cls-31" d="M1325,1116.71c0,.47,0,1,0,1.42a0,0,0,0,1,0,0c7.11.06,14.21.15,21.3.18,8.8.64-1.46-9.9,12.21-8.53,36.62.43,73.34-.91,109.9.58,0,2.15-.08,4.29-.14,6.44,2.71,3.17,6,2.25,9.3,1.37l25.17.42,0,0c1-10.57,1.29-22.47-.66-32.94a.54.54,0,0,1-.34-.8c-1.56-6.21-7-7.79-12-9.89,0-8.06-7.33-8.53-13.65-8.25-64.7-1.32-130.09,1.67-194.46-.87l-3.1,1,3.1-1c-2.36-35.1-.17-70.72-.83-106,0-2.36-1.35-5.43,2.14-6.81-.34-5-.66-9.91-.91-14.86q.4,7.43.92,14.85c.07,2.2-.25,4.54,2.22,5.81l3.43-.75,1.14.51a1.44,1.44,0,0,1,1-.44c.46-1.83.92-3.64,1.39-5.45.48-6.33,1.1-16.21,1.33-28.35.29-16.34-.32-28.5-.52-32.51-.88-18.86-2-58.77-3.3-130.44,0-1.83.1-3.67.15-5.51,4.32-6.05,2.36-14.87,6.5-21.52a10.19,10.19,0,0,0-9.91-14.56l-5.22-2c-1.24-4.87,0-10-.39-14.94-.57-3.37,0-6.87.07-6.13,2.41,0,4.85-.09,7.24.18,7.94.88,14.21-1.76,18.65-8.49,6.41-4.67,7.73-8.68,4.93-16.45-8.68-24.09-17.59-48.1-26.27-72.18-1.91-5-5.45-8-11-8q-41,0-82,0c-5.81,0-9.76,3.22-12.92,7.71-6.67,5.06-7.29,11.06-4.34,18.79,4,10.53,25.22,68.66,25.64,69.81.65,1.8,2,5.54,5.49,7.84,1.94,1.26,4,1.75,12.6,2.16,2.94.15,6.84.29,11.46.33l1.54.67-1.32-.5-.22-.17c-1.2,4.93,3.52,23.68-5,20.48a2.94,2.94,0,0,0-3.21,1.67s0,0,.06,0l-.07,0c-6.52,4.55-7.71,9.06-4.45,16,2.78,6,3.13,12.46,4.1,18.81a2.44,2.44,0,0,0,1,2.93c.34,1.3.69,2.59,1,3.92h0c-.85,38.33-.85,76.94,0,115.26-6.48,10-6.36,76.08-.42,86l3.61-1.17c5.37-.43,1.85-6.37,4.71-8.93q.42-25.37.48-50.74c.13,5.66.33,11.25.55,16.77-.07,5.6-.18,11.3-.36,17.1s-.4,11.35-.67,16.87q.09,58.23.17,116.42c0,2.81,0,5.82-3.88,6.3a.84.84,0,0,1-.79.26l-2.44,2.32c-3.94,11.61-.81,25.52-2,38,11.42,2.37,24.42,3.16,35.29.11-3.54-9.12,10.91-5.35,15.94-5.77,13.16-1.4,26.36-.45,39.54-.5,3.24.26,1.59,5,2.14,7.22.64.61,1.26,1.22,1.91,1.82a9.79,9.79,0,0,1,6.17.06c.41-.54.8-1.08,1.17-1.6M1267.55,663.6c-3.1-.09-4.59-1.93-5.19-4.74-.51-2.4,1-2.89,2.85-2.89C1269.79,655,1273.21,663.29,1267.55,663.6Zm6.88,8c.31,2.3-1.36,2.95-3.15,2.9-5,.53-8.08-9.26-1.85-8.32C1273.32,666,1274.06,668.68,1274.43,671.6Zm-14.49,2.27c-4.3.91-7.8-7.93-3.26-7.57C1263.17,665,1266.25,674.22,1259.94,673.87Zm3.58-20.42c-4-.06-4.66-3.44-5.3-6.08s2-2.59,3.78-2.54C1267.09,644.32,1269.53,654,1263.52,653.45Zm-7.42,10.12c-4.57.14-7.84-8.31-1.6-7.65C1258.84,655.37,1261.79,663.85,1256.1,663.57Zm-6.91,11.08c-4-.19-5.1-3.29-5.86-6.29-.48-2,1.52-2.09,3-2.18C1251.29,665.13,1255.09,674.33,1249.19,674.65Zm3.11-21.2c-3.81-.07-4.16-3.1-5-5.58-.13-2.45,1.31-3,3.21-3C1255.74,644.14,1258.39,653.92,1252.3,653.45ZM1248,661c-.94,5.54-8.83,1.65-8.3-2.57-.19-2.28,1.73-2.53,3.49-2.46C1246.42,656.11,1247.43,658.4,1248,661Zm-6.64-7.58c-3.51-.07-4.53-2.63-5.3-5.12-.12-2.78,1.37-3.52,3.52-3.47C1244.31,644.43,1246.9,653.85,1241.34,653.42Zm52.51,7.57c-.31,4.5-6.08,2.22-9,2.76a1,1,0,0,1,0,.17,52.35,52.35,0,0,1-7.22-.62c-4.53-.72-4.45-8.39.7-7.4C1283.38,656.56,1293.64,653.27,1293.85,661Zm-3.83-9.7c-.1,4.14-11.28,1.64-14.42,2.13-3.68-.17-5.33-2.7-5.4-5.92-.21-4.46,5.6-2.26,8.22-2.78v.21C1283.35,644.37,1290.74,644.61,1290,651.29Zm-83.3-16.87c-14.85-38.9-12-25.67,28.28-28,9.91,0,19.83.35,29.72-.13,5.84-.28,8.46,2.2,10,7.39,2,6.59,4.45,13.05,6.81,19.53,1.92,5.27,1.1,6.83-4.62,6.87-20.75.13-41.49.06-62.25.07C1210.66,640.15,1208.07,638.31,1206.72,634.42Zm8.43,10.46a131.83,131.83,0,0,1,13.34.16c3.08.28,4.28,3,4.28,5.72-.2,4.45-6.09,2.24-8.94,2.76a.31.31,0,0,1,0,.1,50.93,50.93,0,0,1-7.21-.39C1213.07,652.82,1210.34,645,1215.15,644.88Zm5.56,18.49c-3-.33-4.11-3.54-4-5.92.16-2.89,6.4-1.16,8.56-1.58a.25.25,0,0,1,0-.12c4.22.33,10.91-1,11.26,5,.31,1.87-.81,2.87-2.52,2.89A109.69,109.69,0,0,1,1220.71,663.37Zm2.26,57.68a2.07,2.07,0,0,1,.52.42A3.38,3.38,0,0,0,1223,721.05Zm62.32,40.54q0,56.73,0,113.45a12.82,12.82,0,0,0-2.36,7.79c-2.5-1.05-2.08-3.31-2.08-5.31q0-61.41,0-122.84c0-2-.46-4.25,2-5.33a1.55,1.55,0,0,1,0-.22C1283.47,753.31,1283.88,757.56,1285.29,761.59Zm-53.06,141.19c-.19-7.54-.28-14.94-.31-22.25-2,.28-3.1-1.46-4.66-2.16a3.87,3.87,0,0,1-.46-1q0-57.33.07-114.68l1-4.49c1.22-1.24,1.65-3.45,4-3.27,0-.24.09-.46.12-.7,0,.24-.06.46-.1.7C1231.88,804.27,1232.41,853.55,1232.23,902.78Zm44.69,164.65,1.67-.54Z" transform="translate(-100 -338)"/><path class="cls-29" d="M1258.13,1116.92c-10.89,3-23.88,2.25-35.3-.11-5.74.07-11.57-.58-17,2.65H1296l.11-1.64C1283.36,1118.71,1270.78,1116.46,1258.13,1116.92Z" transform="translate(-100 -338)"/><path class="cls-32" d="M1306.78,688.53" transform="translate(-100 -338)"/><path class="cls-33" d="M1235,606.43c-10.46,0-20.93-.07-31.4,0-5.54,0-6.5,1.38-4.73,6.39,2.55,7.22,5.33,14.35,7.85,21.57,1.35,3.9,3.94,5.74,8,5.74,20.75,0,41.5.05,62.25-.07,5.72,0,6.53-1.61,4.62-6.88-2.36-6.48-4.81-12.94-6.81-19.53-1.57-5.18-4.19-7.66-10-7.38C1254.83,606.77,1244.91,606.43,1235,606.43Z" transform="translate(-100 -338)"/><path class="cls-33" d="M1223.83,653.53a38.78,38.78,0,0,0,3.89,0c2.06-.2,5,.67,5-2.73,0-2.69-1.19-5.44-4.27-5.72a129,129,0,0,0-13.34-.16c-1.71,0-2.93,1-2.53,2.88.51,2.35,1.19,4.94,4,5.46a52.14,52.14,0,0,0,7.2.4Z" transform="translate(-100 -338)"/><path class="cls-33" d="M1278.41,644.73a15.16,15.16,0,0,0-2.78,0c-2.08.38-5.52-1.26-5.44,2.74.07,3.22,1.73,5.76,5.42,5.93,3.15.14,6.32.17,9.47.06,1.9-.07,4.76.67,4.93-2.19s-1.15-5.67-4.38-6.27c-2.33-.44-4.8-.09-7.22-.09Z" transform="translate(-100 -338)"/><path class="cls-33" d="M1284.83,663.75c1.5,0,3,.07,4.49,0,2-.12,4.58.31,4.53-2.75,0-2.65-1.43-4.78-4.35-5-3.72-.22-7.47-.13-11.21-.12-1.94,0-3.92.21-4,2.8a4.18,4.18,0,0,0,3.32,4.6,52.62,52.62,0,0,0,7.23.61Z" transform="translate(-100 -338)"/><path class="cls-33" d="M1225.28,655.87a33.64,33.64,0,0,0-3.89,0c-1.7.2-4.54-.85-4.66,1.55s.93,5.6,4,5.93a107.55,107.55,0,0,0,13.32.22c1.71,0,2.83-1,2.53-2.89-.33-2.11-1.19-4.13-3.51-4.5a71.51,71.51,0,0,0-7.76-.45Z" transform="translate(-100 -338)"/><path class="cls-33" d="M1263.52,653.45c2.14,0,3.73-.66,3.49-3.13-.3-3-1.54-5.38-5-5.48-1.8-.05-4.43-.08-3.79,2.54S1259.53,653.4,1263.52,653.45Z" transform="translate(-100 -338)"/><path class="cls-33" d="M1247.34,647.89c.81,2.47,1.16,5.5,5,5.56,2.2,0,3.77-.74,3.46-3.22-.37-3-1.61-5.41-5.21-5.39C1248.66,644.85,1247.23,645.43,1247.34,647.89Z" transform="translate(-100 -338)"/><path class="cls-33" d="M1269.43,666.19c-1.57.12-3.63-.28-3.42,2.35.26,3.25,1.54,5.84,5.27,6,1.78.06,3.45-.6,3.15-2.9C1274.05,668.69,1273.31,666,1269.43,666.19Z" transform="translate(-100 -338)"/><path class="cls-33" d="M1249.19,674.65c2-.14,3.35-1,2.94-3.11-.61-3.06-2-5.63-5.78-5.36-1.49.1-3.51.2-3,2.19C1244.08,671.37,1245.23,674.46,1249.19,674.65Z" transform="translate(-100 -338)"/><path class="cls-33" d="M1236.05,648.31c.76,2.48,1.77,5.05,5.29,5.11,1.92,0,3.46-.64,3.08-2.87-.48-2.77-1.15-5.61-4.87-5.71C1237.4,644.78,1235.92,645.52,1236.05,648.31Z" transform="translate(-100 -338)"/><path class="cls-33" d="M1256.67,666.31c-.27,0-2.67-.23-2.07,2.22s1.6,5.53,5.33,5.35c1.74-.08,3.64-.17,3.38-2.57C1263,668.26,1261.63,666,1256.67,666.31Z" transform="translate(-100 -338)"/><path class="cls-33" d="M1248,661c-.55-2.6-1.56-4.89-4.8-5-1.76-.07-3.69.18-3.49,2.45.23,2.76,1.7,4.9,4.77,5.19C1246.21,663.78,1247.83,663.4,1248,661Z" transform="translate(-100 -338)"/><path class="cls-33" d="M1267.55,663.6c2-.05,3.12-1.09,2.9-3.13-.34-3.07-2.24-4.5-5.24-4.49-1.86,0-3.36.49-2.85,2.89C1263,661.68,1264.45,663.52,1267.55,663.6Z" transform="translate(-100 -338)"/><path class="cls-33" d="M1254.5,655.92c-2,.14-4,.19-3.45,2.62.56,2.61,1.93,4.83,5,5,2,.12,3.29-.74,3.14-2.85A4.74,4.74,0,0,0,1254.5,655.92Z" transform="translate(-100 -338)"/><path class="cls-34" d="M1468.4,1110.38c0,2.14-.09,4.29-.13,6.43,2.69,3.18,6,2.26,9.28,1.38C1477.4,1109.61,1477.21,1109.45,1468.4,1110.38Z" transform="translate(-100 -338)"/><path class="cls-34" d="M1306.8,688.54c-5.89-1.61-11.91-1.18-17.81-.55-4.81.51-8.41,3.16-8.08,8.86,2.42,0,4.85-.08,7.24.18C1296.09,697.9,1302.36,695.27,1306.8,688.54Z" transform="translate(-100 -338)"/><path class="cls-34" d="M1288.66,958.15c-3.82-25.94-3.29-52.82-.49-78.94.38-2.44,0-4.13-2.9-4.16a12.73,12.73,0,0,0-2.37,7.8c-2.48,23.44-1.51,46.8.12,70.25.06,2.19-.25,4.54,2.22,5.81Z" transform="translate(-100 -338)"/><path class="cls-34" d="M1223.85,877.67c-6.48,10-6.36,76.07-.43,86l3.62-1.17c-3.5-28-3.89-56.07.23-84.09a3.26,3.26,0,0,1-.46-1Z" transform="translate(-100 -338)"/><path class="cls-34" d="M1217.77,736.74c2.77,5.94,3.13,12.46,4.1,18.81a2.43,2.43,0,0,0,1,2.93c.35,1.3.7,2.61,1,3.93l3,.32c1.64-9.88-2.62-20.57-5.45-30.25a7.92,7.92,0,0,1,1.38-7.94c1.21-1.49,1.83-2.92-.61-3.85C1215.69,725.24,1214.51,729.75,1217.77,736.74Z" transform="translate(-100 -338)"/><path class="cls-34" d="M1289.82,755.89c-2.49-11.89-10.35-23.28-3.41-36.07l-4,1.17c-4.58,7.52-1.43,15.24-.52,22.88,1.39,5.78,1.38,11.93,3.39,17.66l4.4-.12Z" transform="translate(-100 -338)"/><path class="cls-35" d="M1351.17,863.13l4.78,20.73s-1.59,47.84,11.16,43.06,9.57-46.25,9.57-46.25l-11.16-20.73Z" transform="translate(-100 -338)"/><circle class="cls-35" cx="1322.13" cy="266" r="31.89"/><path class="cls-35" d="M1446.85,612.78,1450,659l-39.87,4.78s0-38.27-3.19-43S1446.85,612.78,1446.85,612.78Z" transform="translate(-100 -338)"/><path class="cls-35" d="M1358.44,673l51.65-21.82s24.69-19,39.15-4.93l6.49,9.29s57.38,22.38,57.37,39.92l-22.4,87.68s12.71,49.45-6.43,52.62l-103.66,9.48s-14.34-17.55-1.56-39.87l-4.74-52.63Z" transform="translate(-100 -338)"/><path class="cls-35" d="M1393.52,674.62,1358.44,673s-11.17,3.18-19.17,33.47-9.64,79.72-9.64,79.72l24.24,88.63,18.74-2.48-9.49-86.12,16-57.39Z" transform="translate(-100 -338)"/><path class="cls-35" d="M1494,684.28l17.29,5.4s14.58,21.74,14.57,32.9,6.3,95.68,6.3,95.68L1490.6,886.8l-12.72-33.5,25.55-43-20.69-52.64Z" transform="translate(-100 -338)"/><path class="cls-35" d="M1375.89,841.61l114.64-10.09s11.33,72.28,9.74,101-3.19,73.35-3.19,73.35q2.73,95.89,5.47,191.77l-26.2-10Q1465.19,1110.3,1454,1033l-20.73-87.7-23.92,111.62q-12,68.56-23.92,137.14l-25.51-6.38q2.38-82.92,4.78-165.84S1352,865.53,1375.89,841.61Z" transform="translate(-100 -338)"/><path class="cls-17" d="M1500.27,932.61c-.6,10.5-1.18,23.12-1.68,34.91h-60.07l-5.23-22.15-4.76,22.14h-66.71c-1.48-47.56-.51-111.21,14.06-125.78l114.65-10.1S1501.85,903.92,1500.27,932.61Z" transform="translate(-100 -338)"/><path class="cls-35" d="M1359.94,1187.64l-14.35,4.79s-30.3-8-22.33,12.75,30.3,17.54,30.3,17.54,27.11,20.73,38.27,4.79l-6.38-33.49Z" transform="translate(-100 -338)"/><path class="cls-35" d="M1476.35,1187.64l-14.35,4.79s-30.3-8-22.33,12.75,30.3,17.54,30.3,17.54,27.11,20.73,38.27,4.79l-6.38-33.49Z" transform="translate(-100 -338)"/><path class="cls-36" d="M1446.85,631.91s33.48-23.92,15.94-52.62c-12.17-19.91-37.38-18.34-51.69-15.5a24.14,24.14,0,0,0-17.67,13.9c-2.4,5.59-2.4,11.17,7.17,11.17,19.14,0,9.57,14.35,9.57,14.35s12.76,3.19,9.57,14.35S1446.85,631.91,1446.85,631.91Z" transform="translate(-100 -338)"/></svg>