<?xml version="1.0" encoding="utf-8"?>
<!-- Generator: Adobe Illustrator 25.4.1, SVG Export Plug-In . SVG Version: 6.00 Build 0)  -->
<svg version="1.1" id="Layer_1" xmlns="http://www.w3.org/2000/svg" xmlns:xlink="http://www.w3.org/1999/xlink" x="0px" y="0px"
	 viewBox="0 0 2000 1600" style="enable-background:new 0 0 2000 1600;" xml:space="preserve">
<style type="text/css">
	.st0{opacity:0.4021;fill:url(#SVGID_1_);enable-background:new    ;}
	.st1{opacity:0.4021;fill:url(#SVGID_00000169559450344812520910000009491507971164735401_);enable-background:new    ;}
	.st2{opacity:0.4021;fill:url(#SVGID_00000080892677907228832260000001650102899233086876_);enable-background:new    ;}
	.st3{fill-rule:evenodd;clip-rule:evenodd;fill:url(#SVGID_00000008871941949201063880000004166180216296264067_);stroke:#828282;}
	.st4{fill-rule:evenodd;clip-rule:evenodd;fill-opacity:0.1754;}
	.st5{fill:none;stroke:#000000;stroke-linecap:round;stroke-opacity:9.942000e-02;}
	.st6{fill:none;stroke:#000000;stroke-linecap:round;stroke-opacity:0.1228;}
	.st7{fill:none;stroke:#000000;stroke-width:0.9913;stroke-linecap:round;stroke-opacity:0.1521;}
	.st8{fill:none;stroke:#000000;stroke-width:0.9916;stroke-linecap:round;stroke-opacity:0.1521;}
	.st9{fill:none;stroke:#000000;stroke-width:0.9919;stroke-linecap:round;stroke-opacity:0.1521;}
	.st10{fill:none;stroke:#000000;stroke-width:0.9865;stroke-linecap:round;stroke-opacity:0.117;}
	.st11{font-family:'TimesNewRomanPSMT';}
	.st12{font-size:205.4161px;}
	.st13{fill-rule:evenodd;clip-rule:evenodd;fill:url(#SVGID_00000182513364718324965030000010056831690888412294_);stroke:#9E9E9E;}
	.st14{fill:none;stroke:#FFFFFF;stroke-linecap:round;stroke-linejoin:round;stroke-opacity:0.3099;}
	.st15{fill:none;stroke:#FFFFFF;stroke-width:2.4495;stroke-linecap:round;stroke-linejoin:round;stroke-opacity:0.3099;}
	.st16{fill:none;stroke:url(#SVGID_00000130606437074278119100000006103550569599125414_);stroke-width:0.9819;}
	.st17{fill:#FFFFFF;fill-opacity:0.6374;}
</style>
<g>
	<g transform="matrix(.023745 0 0 .020868 44.682 33.279)">
		
			<linearGradient id="SVGID_1_" gradientUnits="userSpaceOnUse" x1="1141794.75" y1="-1160470.875" x2="1141794.75" y2="-1178329.875" gradientTransform="matrix(2.374500e-02 0 0 -2.086800e-02 13118.9756 21134.4688)">
			<stop  offset="0" style="stop-color:#000000;stop-opacity:0"/>
			<stop  offset="0.5" style="stop-color:#000000"/>
			<stop  offset="1" style="stop-color:#000000;stop-opacity:0"/>
		</linearGradient>
		<path class="st0" d="M15224.7,45351.2H65237v17859H15224.7V45351.2z"/>
		
			<radialGradient id="SVGID_00000093871800166504478180000007953339147836273570_" cx="874780.875" cy="-849365.4375" r="4859.1948" gradientTransform="matrix(5.929032e-02 0 0 -3.699333e-02 13691.3984 22754.6934)" gradientUnits="userSpaceOnUse">
			<stop  offset="0" style="stop-color:#000000"/>
			<stop  offset="1" style="stop-color:#000000;stop-opacity:0"/>
		</radialGradient>
		
			<path style="opacity:0.4021;fill:url(#SVGID_00000093871800166504478180000007953339147836273570_);enable-background:new    ;" d="
			M65240,45351.9v17857.9c5333.9,33.6,12895.1-4001.1,12895.1-8930.2S72182.6,45351.9,65240,45351.9z"/>
		
			<radialGradient id="SVGID_00000095340118750374096960000008612546966762760079_" cx="32887.6953" cy="-849365.4375" r="4859.1948" gradientTransform="matrix(-5.929032e-02 0 0 -3.699333e-02 16860.25 22754.6934)" gradientUnits="userSpaceOnUse">
			<stop  offset="0" style="stop-color:#000000"/>
			<stop  offset="1" style="stop-color:#000000;stop-opacity:0"/>
		</radialGradient>
		
			<path style="opacity:0.4021;fill:url(#SVGID_00000095340118750374096960000008612546966762760079_);enable-background:new    ;" d="
			M15224.7,45351.9v17857.9c-5333.9,33.6-12895.1-4001.1-12895.1-8930.2S8282.2,45351.9,15224.7,45351.9z"/>
	</g>
	
		<linearGradient id="SVGID_00000131359790678809451150000015047041625065496722_" gradientUnits="userSpaceOnUse" x1="1014.725" y1="414.0521" x2="1013.7542" y2="1306.1421" gradientTransform="matrix(1 0 0 -1 0 1602)">
		<stop  offset="0" style="stop-color:#919191"/>
		<stop  offset="0.2023" style="stop-color:#E9E9E9"/>
		<stop  offset="0.2364" style="stop-color:#F3F3F3"/>
		<stop  offset="0.2989" style="stop-color:#E6E6E6"/>
		<stop  offset="1" style="stop-color:#F8F8F8"/>
	</linearGradient>
	
		<path style="fill-rule:evenodd;clip-rule:evenodd;fill:url(#SVGID_00000131359790678809451150000015047041625065496722_);stroke:#828282;" d="
		M367.9,285.8l-158.8,727.5c-25.4,116.5,30.1,190.9,110.5,190.9h1390.7c80.4,0,136.5-87.2,108.5-188.9l-201-731.5
		c-5.5-20.1-31.2-36.2-52.3-36.2l-1145.5,2C389.3,249.7,373.9,258.4,367.9,285.8L367.9,285.8z"/>
	<path class="st4" d="M1500.6,367.3h-268.4l25,170.7h270.5L1500.6,367.3L1500.6,367.3z"/>
	<path class="st5" d="M1565.7,652h-560"/>
	<path class="st5" d="M1584.4,726.6h-578.7"/>
	<path class="st6" d="M1607.7,801.3h-602"/>
	<path class="st7" d="M1629,876h-623.7"/>
	<path class="st8" d="M1652.3,950.7h-647"/>
	<path class="st9" d="M1680.3,1025.3h-675"/>
	<path class="st10" d="M1645.5,1100h-640.3"/>
	<text transform="matrix(0.68 0 -7.795218e-02 0.997 442.3223 514.1573)" class="st11 st12">NUTRITION</text>
	
		<linearGradient id="SVGID_00000151531412867981658640000005964479410492757408_" gradientUnits="userSpaceOnUse" x1="636.7728" y1="517.6206" x2="636.0635" y2="937.6252" gradientTransform="matrix(1 0 0 -1 0 1602)">
		<stop  offset="0" style="stop-color:#787878"/>
		<stop  offset="1" style="stop-color:#D0D0D0"/>
	</linearGradient>
	
		<path style="fill-rule:evenodd;clip-rule:evenodd;fill:url(#SVGID_00000151531412867981658640000005964479410492757408_);stroke:#9E9E9E;" d="
		M909,652.7v448H426c-42.3,0-77-44.3-56-107.3l72.3-340.7H909L909,652.7z"/>
	<path class="st14" d="M874,1028.3H407.4"/>
	<path class="st15" d="M874,1028.3H407.4"/>
	
		<linearGradient id="SVGID_00000159449299367467611990000002540534081079724963_" gradientUnits="userSpaceOnUse" x1="375.3217" y1="1453.5931" x2="1678.5352" y2="-708.845" gradientTransform="matrix(1.3105 0 0 -0.7631 -98.614 1320.1011)">
		<stop  offset="0" style="stop-color:#FFFFFF"/>
		<stop  offset="1" style="stop-color:#FFFFFF;stop-opacity:0"/>
	</linearGradient>
	<path style="fill:none;stroke:url(#SVGID_00000159449299367467611990000002540534081079724963_);stroke-width:0.9819;" d="
		M397.9,313.5L249.3,1014c-16.5,77.7-11.9,152.6,73.8,152.6H1693c83.4,0,110.4-68.9,81.3-174l-187.5-678.6
		c-5.1-18.6-17.1-31-36.5-31l-1113.7,1.9C412.9,284.8,402.1,293.5,397.9,313.5L397.9,313.5z"/>
	<path class="st17" d="M346.7,1033c0,20-16.2,36.2-36.2,36.2c-20,0-36.2-16.2-36.2-36.2l0,0c0-20,16.2-36.2,36.2-36.2
		C330.5,996.8,346.7,1013,346.7,1033z"/>
</g>
</svg>
