<svg xmlns="http://www.w3.org/2000/svg" viewBox="0 0 2000 1600"><defs><style>.cls-1{fill:#fff;}.cls-2{fill:#8186fe;}.cls-3{fill:#f5d01f;}.cls-4{fill:#243235;}.cls-5{fill:#ff9430;}.cls-5,.cls-6{stroke:#000;stroke-miterlimit:10;stroke-width:7px;}.cls-6{fill:#8eba27;}</style></defs><g id="Layer_6" data-name="Layer 6"><path d="M1500,386.31v806.88a101.29,101.29,0,0,1-101.29,101.29H601.29A101.29,101.29,0,0,1,500,1193.19V386.31A101.32,101.32,0,0,1,601.29,285h797.42A101.32,101.32,0,0,1,1500,386.31Z"/><path class="cls-1" d="M1457.21,388.46V1191a53.4,53.4,0,0,1-53.39,53.39H596.14A53.39,53.39,0,0,1,542.79,1191V388.46a53.35,53.35,0,0,1,53.35-53.34h807.68A53.36,53.36,0,0,1,1457.21,388.46Z"/><path class="cls-2" d="M1457.21,388.46V555.34H542.79V388.46a53.35,53.35,0,0,1,53.35-53.34h807.68A53.36,53.36,0,0,1,1457.21,388.46Z"/><rect x="500" y="524.02" width="1000" height="50.09"/><rect x="713.2" y="190.71" width="165.02" height="264.6" rx="15.64"/><rect class="cls-3" x="757.78" y="235.38" width="75.87" height="175.26" rx="8.99"/><rect x="1119.48" y="190.71" width="165.02" height="264.6" rx="15.64"/><rect class="cls-3" x="1164.05" y="235.38" width="75.87" height="175.26" rx="8.99"/><rect x="905.49" y="692.68" width="188.92" height="193.47" rx="10.99"/><rect class="cls-1" x="944.94" y="736.81" width="110" height="105.2"/><rect x="1143.81" y="692.68" width="188.92" height="193.47" rx="10.99"/><rect class="cls-1" x="1183.27" y="736.81" width="110" height="105.2"/><rect x="666.54" y="930.87" width="188.92" height="193.47" rx="10.99"/><rect class="cls-1" x="706" y="975.01" width="110" height="105.2"/><rect x="906.1" y="930.87" width="188.92" height="193.47" rx="10.99"/><rect class="cls-1" x="945.56" y="975.01" width="110" height="105.2"/><rect x="1144.43" y="930.87" width="188.92" height="193.47" rx="10.99"/><rect class="cls-1" x="1183.89" y="975.01" width="110" height="105.2"/><path class="cls-4" d="M700.43,671.68c4.52,2,7.51,4.41,11.89,7.89a67.42,67.42,0,0,1,7.54,6.8,49.42,49.42,0,0,1,7.85,11c1.91,3.46,1.86,2.64,21.41,27.31,10.37,13.09,13,16.56,16.07,16.82,3.66.31,6.25-3.94,6-8.07-.14-2.27-1.12-4.14-14.83-19.39-6.41-7.13-10.83-11.87-15.56-17.44-.57-.67-1.56-1.84-3-3.46-3.58-4-5.44-5.78-8.25-8.81-4.53-4.88-3.51-4.45-6.66-7.7a77.59,77.59,0,0,0-11.8-9.9,75.11,75.11,0,0,0-11.2-6.25c-3.82-1.81-6.28-2.65-8.88-2.69-1.1,0-3,0-4.1,1.05-1.5,1.39-.73,3.56-.61,3.89.89,2.37,3.52,4,5.53,5.25C695.26,670.09,696.64,670,700.43,671.68Z"/><path class="cls-5" d="M837.19,859.64c-4.67,9.28-6.47,13.09-10.38,18.9-2.78,4.11-5,7-7.42,8.66a9.48,9.48,0,0,1-4,1.81c-.15,0-2.34.45-5.43.88-.48.07-1,.15-1.45.21-2.26.29-5,.56-8.06.76-2.11.12-6.25.35-11.34.22a146.37,146.37,0,0,1-19.37-2c-22.28-4-43.11-16.31-44.83-17.34-9.55-5.71-22.4-13.44-33.79-28.33-7.81-10.25-12.17-20.25-15.27-27.29a79,79,0,0,1-5.36-15.89,68.5,68.5,0,0,1-1.35-17.86c.94-14.67,7.25-25.25,11.81-32.7a102,102,0,0,1,19.93-23.38c7-6.15,34.72-30.52,75-30.77,24.21-.14,41,8.5,46.15,12.94a103,103,0,0,1,9.34,9.43c1.24,1.48,3.31,4,5.61,7.21,0,0,3.1,4.45,5.7,9.16,3.39,6.17,7.67,17.31,10.57,32,1.21,7.34,5.48,35.75-.75,57.86-2.18,7.72-5.46,15.72-5.46,15.72C844.79,845.18,844.07,846,837.19,859.64Z"/><path class="cls-6" d="M804.24,681.21c-10.51-4.52-33.65-6.54-59.37-.17a137.22,137.22,0,0,0-35.37,14.17A130.87,130.87,0,0,0,688,710.48c-8.79,7.79-22.47,20.2-29,40.43A73.78,73.78,0,0,0,655.78,767a61,61,0,0,0,.77,8.27c.72,4.75,1.09,7.13,1.89,8,3.75,4.17,14.85,0,21.75-2.67a70.77,70.77,0,0,0,13.87-7.15c4.13-2.67,6.2-4,8.3-6.42,4.11-4.74,4.53-8.55,6.63-8.6s2.87,3.64,5.87,8c3.83,5.6,8.95,8.54,14.25,11.84,2.83,1.77,5.37,3.06,7,3.91a55,55,0,0,0,7.2,3.25,46.81,46.81,0,0,0,8,1.89c6.48,1,9.73,1.52,12.19.73,4.21-1.37,6.57-5.23,11.28-12.94a56.92,56.92,0,0,0,4.85-9.88,50.34,50.34,0,0,0,2.45-9,47,47,0,0,0,.58-6.07h0a67,67,0,0,0,0-8.72c-.11-1.6-.29-2.75-.37-3.23a32.14,32.14,0,0,0-.77-3.46c-.25-.93-.48-1.63-.62-2s-.52-1.53-1-2.7c-1.12-2.62-1.67-2.81-1.59-3.31.33-2.06,10-1.76,16.1-2.38A46.34,46.34,0,0,0,803,722.6a51,51,0,0,0,6.11-2.18,48.75,48.75,0,0,0,7.82-4.3c2-1.34,3.55-2.53,4.45-3.23.33-.27,1.9-1.51,3.88-3.29,1.05-.94,1.76-1.63,3.18-3,2.21-2.14,3.31-3.22,3.42-3.6.72-2.41-2.63-5.36-6.52-8.73a74.41,74.41,0,0,0-11.26-8A108.46,108.46,0,0,0,804.24,681.21Z"/></g></svg>